# xmcd
#
# Track frame offsets:
#  150
#  18930
#  35145
#  50417
#  69167
#  86245
#  109250
#  128865
#  147667
#  165785
#  182605
#  200347
#  220672
#  237215
#
# Disc length: 3382 seconds
#
# Revision: 0
# Processed by: cddbd v1.4PL0 Copyright (c) Steve Scherf et al.
# Submitted via: AltoMP3_Maker 3.0
#
DISCID=c00d340e
DTITLE=Kenny Rogers - Heart To Heart
DYEAR=1900
DGENRE=
TTITLE0=Morning Desire
TTITLE1=Heart To Heart
TTITLE2=The Factory
TTITLE3=Islands In The Stream
TTITLE4=Midsummer Nights
TTITLE5=I Prefer The Moonlight
TTITLE6=What About Me?
TTITLE7=Buried Treasure
TTITLE8=Tomb Of The Unknown Love
TTITLE9=Twenty Years Ago
TTITLE10=Make No Mistake, She's Mine
TTITLE11=They Don't Make Them Like They Used To
TTITLE12=Eyes That See In The Dark
TTITLE13=Crazy
EXTD=
EXTT0=
EXTT1=
EXTT2=
EXTT3=
EXTT4=
EXTT5=
EXTT6=
EXTT7=
EXTT8=
EXTT9=
EXTT10=
EXTT11=
EXTT12=
EXTT13=
PLAYORDER=
